# xmcd
#
# Track frame offsets: 
#        150
#        17776
#        40046
#        58338
#        73777
#        90685
#        106100
#        124238
#        140753
#        157043
#        177341
#        198544
#        206669
#        228831
#        248251
#        276877
#
# Disc length: 4012 seconds
#
# Revision: 0
# Processed by: cddbd v1.5.2PL0 Copyright (c) Steve Scherf et al.
# Submitted via: ExactAudioCopy v0.95b4
#
DISCID=e60faa10
DTITLE=Various Artist - WOMAD New Zealand 2008
DYEAR=2008
DGENRE=World
TTITLE0=Club do Blanco - Muito Incrementado
TTITLE1=Toumani Diabate's Symmetric Orchestra - Single
TTITLE2=Mavis Staples - Eyes on the Prize
TTITLE3=David D'Or - Lecha D'Odi
TTITLE4=Sharon Jones and the Dap Kings - 100 Days, 100 Nights
TTITLE5=Bod Evans - Friend
TTITLE6=Kora - Time
TTITLE7=SJD - Bad Karma in Yokohama
TTITLE8=Beirut - A Sunday Smile
TTITLE9=Cesaria Evora - Miss Perfumado
TTITLE10=Titi Robin - Florica
TTITLE11=Terem Quartet - Quck Dance
TTITLE12=Taraf de Haidouks - The Return of Magic Horse
TTITLE13=Susana Baca - Viento Del Olvido
TTITLE14=Jojo Hirota - Reminiscences II
TTITLE15=Dr Natesan Ramani - A Bhajan in Raag Carnatac Sindh Bhairavi,
TTITLE15=in Adi Taal (Rhythmic Cycle)
EXTD=
EXTT0=
EXTT1=
EXTT2=
EXTT3=
EXTT4=
EXTT5=
EXTT6=
EXTT7=
EXTT8=
EXTT9=
EXTT10=
EXTT11=
EXTT12=
EXTT13=
EXTT14=
EXTT15=
PLAYORDER=
